<svg xmlns="http://www.w3.org/2000/svg" version="1.1" xmlns:xlink="http://www.w3.org/1999/xlink" xmlns:svgjs="http://svgjs.dev/svgjs" width="100%" height="100%" viewBox="0 0 1000 600"><rect width="1000" height="600" x="0" y="0" fill="#101828"/><g><rect width="333.3333333333333" height="333.3333333333333" rx="13.333333333333334" ry="13.333333333333334" y="228.28110471769793" fill="#ffc531" transform="matrix(0.6066226727001136,0,0,0.6066226727001137,0,60.41571663102626)" x="206.05889892578125"/><path d="M323.81631938480683 469.94776507343903L323.81631938480683 337.8578383327793L299.6614481370349 337.8578383327793L299.6614481370349 319.9477631676785L370.6273108205096 319.9477631676785L370.6273108205096 337.8578383327793L346.5723563100604 337.8578383327793L346.5723563100604 469.94776507343903L323.81631938480683 469.94776507343903ZM399.00366422016725 469.94776507343903L399.00366422016725 337.8578383327793L374.8487929723953 337.8578383327793L374.8487929723953 319.9477631676785L445.78967647153934 319.9477631676785L445.78967647153934 337.8578383327793L421.73472196109014 337.8578383327793L421.73472196109014 469.94776507343903L399.00366422016725 469.94776507343903Z " fill="#101828" transform="matrix(0.6066226727001136,0,0,0.6066226727001137,0,60.41571663102626)"/><path d="M645.2104482348191 468.64562445027275L645.2104482348191 345.6879620841035L622.7255655744399 345.6879620841035L622.7255655744399 329.0161307836982L688.785081229184 329.0161307836982L688.785081229184 345.6879620841035L666.3932073905643 345.6879620841035L666.3932073905643 468.64562445027275L645.2104482348191 468.64562445027275ZM701.2947677558479 468.64562445027275L701.2947677558479 356.0816979157369L716.4087012917803 356.0816979157369L718.2223733160922 367.5217829921657Q721.5706908994371 361.15067870163426 726.058366549337 357.9651265563685Q730.546042199237 354.7795744111028 735.2197354926559 354.7795744111028L735.2197354926559 354.7795744111028Q752.6356373671381 354.7795744111028 752.6356373671381 376.68315193548466L752.6356373671381 376.68315193548466Q752.6356373671381 379.45016438283227 751.8218101767416 384.00759664905183Q750.9847307809055 388.54177670983154 749.8453727143506 391.95985090949625L749.8453727143506 391.95985090949625L735.4522575470548 391.95985090949625L735.4522575470548 383.2170216640954Q735.4522575470548 376.4273776756458 733.429315673784 374.0324005153365Q731.3831215950731 371.6141711495874 728.3603348878867 371.6141711495874L728.3603348878867 371.6141711495874Q724.5004687848639 371.6141711495874 721.9659783919153 377.65974456396026L721.9659783919153 377.65974456396026L721.9659783919153 468.64562445027275L701.2947677558479 468.64562445027275ZM785.0724639557927 406.1204440223928L785.0724639557927 406.1204440223928Q788.1882594847386 404.5625462579198 791.7923513279227 402.91163967168717Q795.3731909656665 401.28398529089446 798.395977672853 400.21438384065925L798.395977672853 400.21438384065925L798.395977672853 386.56533924744036Q798.395977672853 382.31018565193943 798.0471945912545 378.6363371924359Q797.6751593042163 374.96248873293234 795.8382350744644 372.63726818894276Q794.0013108447126 370.3120476449532 789.5833918111325 370.3120476449532L789.5833918111325 370.3120476449532Q785.1654727775522 370.3120476449532 781.654389756128 373.89288728269713Q778.1433067347036 377.496979125881 778.1433067347036 387.21640099975747L778.1433067347036 387.21640099975747L778.1433067347036 391.72732885509726L762.3550592410145 391.72732885509726Q760.890170298301 385.3562245645658 760.890170298301 380.61277465482704L760.890170298301 380.61277465482704Q760.890170298301 368.0100793064035 769.1447032294641 361.429705166913Q777.399236160627 354.84933102742247 790.2344535634495 354.84933102742247L790.2344535634495 354.84933102742247Q801.4420165854795 354.84933102742247 807.7201120542513 358.0116309672483Q814.021459728463 361.15067870163426 816.5559501214116 367.4752785812859Q819.0904405143604 373.8231306663775 819.0904405143604 383.54255254025395L819.0904405143604 383.54255254025395L819.0904405143604 468.64562445027275L803.1394275825917 468.64562445027275L801.6745386398784 458.99595919271593Q798.395977672853 463.7394091024547 793.0014660107972 466.8552046314008Q787.6069543487413 469.9477479549069 780.5150316895731 469.9477479549069L780.5150316895731 469.9477479549069Q773.1440825651262 469.9477479549069 768.4006326553874 466.2041428790837Q763.6571827456487 462.43728559782056 761.331962201659 456.25219895080824Q759.0067416576694 450.0903645092358 759.0067416576694 442.8124242065484L759.0067416576694 442.8124242065484Q759.0067416576694 428.90760535349074 765.6336202080397 420.69957683320746Q772.2372465529702 412.4915483129243 785.0724639557927 406.1204440223928ZM789.6531484274522 454.18275266665756L789.6531484274522 454.18275266665756Q792.2806476421604 454.18275266665756 794.4896071589505 452.8341247511436Q796.6985666757405 451.4854968356296 798.395977672853 449.5090593732385L798.395977672853 449.5090593732385L798.395977672853 414.04944607739725Q796.8613321138198 414.70050782971435 795.0476600895081 415.5840916364304Q793.257240270636 416.49092764858636 790.8855153157667 417.95581659129977L790.8855153157667 417.95581659129977Q786.560605103946 420.65307242232774 782.7937478226829 426.02433187894366Q779.0268905414198 431.3723391301197 779.0268905414198 439.6268720612827L779.0268905414198 439.6268720612827Q779.0268905414198 446.09098517357376 781.5613809343683 450.13686892011566Q784.0958713273171 454.18275266665756 789.6531484274522 454.18275266665756ZM855.6196552604367 468.64562445027275L830.2980035363901 356.0816979157369L850.876205350698 356.0816979157369L861.7582374965691 415.90962251258895L864.4554933275972 439.8593941156817L865.1065550799142 439.8593941156817L868.2223506088603 415.90962251258895L879.011373932972 356.0816979157369L898.9617662004025 356.0816979157369L873.2913313947574 468.64562445027275L855.6196552604367 468.64562445027275ZM907.7743520621232 422.5365010629593L907.7743520621232 422.5365010629593L907.7743520621232 401.28398529089446Q907.7743520621232 388.3790112717523 909.9833115789131 379.8687040807504Q912.1922710957033 371.3583968897485 915.842867349767 366.28941610385124Q919.4702113983908 361.2204353179539 923.8416260210911 358.77895374676484Q928.2130406437916 356.3374721755758 932.5612030610521 355.54689719061935Q936.8861132728728 354.7795744111028 940.4902051160566 354.7795744111028L940.4902051160566 354.7795744111028Q947.9309108568232 354.7795744111028 954.209006325595 357.9186221454887Q960.510353999807 361.05766987987465 964.3004634865099 368.7076454696004Q968.1138251786529 376.3576210593261 968.1138251786529 389.9136568307854L968.1138251786529 389.9136568307854Q968.1138251786529 396.703300819235 967.3697546045762 403.7719712729633Q966.6489362359393 410.8406417266917 965.4165693476248 416.2351533887475L965.4165693476248 416.2351533887475L928.5385715199502 416.2351533887475L928.5385715199502 427.69849067061614Q928.5385715199502 442.3938845086303 931.0498097074587 448.4627101284431Q933.5377956895277 454.50828354281606 940.5599617323762 454.50828354281606L940.5599617323762 454.50828354281606Q944.396575629959 454.50828354281606 947.5123711589051 451.18321816491095Q950.6281666878513 447.88140499244577 950.6281666878513 438.97581030896566L950.6281666878513 438.97581030896566L950.6281666878513 434.06959496114763L967.625528864415 434.06959496114763L967.625528864415 439.2083323633646Q967.625528864415 455.2291019114528 959.9755532746892 462.55354662502003Q952.3255776849635 469.87799133858726 937.8627059013484 469.87799133858726L937.8627059013484 469.87799133858726Q923.3068252959736 469.87799133858726 915.5405886790484 458.763437138317Q907.7743520621232 447.6256307326069 907.7743520621232 422.5365010629593ZM928.5385715199502 402.3535867411297L948.8144946635393 402.3535867411297Q948.9772601016186 400.5399147168178 949.0702689233781 396.91257066819406Q949.1400255396977 393.2852266195703 949.1400255396977 391.0762671027802L949.1400255396977 391.0762671027802Q949.1400255396977 379.8687040807504 946.7683005848285 375.05549755469195Q944.396575629959 370.2190388231936 939.257838227742 370.1492822068739L939.257838227742 370.1492822068739Q933.7703177439266 370.1492822068739 931.1660707346584 375.6600548961292Q928.5385715199502 381.1708275853846 928.5385715199502 395.7267081907593L928.5385715199502 395.7267081907593L928.5385715199502 402.3535867411297ZM985.2739527932958 468.64562445027275L985.2739527932958 319.9477706621388L1005.9684156348033 319.9477706621388L1005.9684156348033 468.64562445027275L985.2739527932958 468.64562445027275ZM1040.9397326164067 468.64562445027275L1040.9397326164067 345.6879620841035L1018.4781021614672 345.6879620841035L1018.4781021614672 329.0161307836982L1084.5143656107714 329.0161307836982L1084.5143656107714 345.6879620841035L1062.1224917721518 345.6879620841035L1062.1224917721518 468.64562445027275L1040.9397326164067 468.64562445027275ZM1097.0240521374353 468.64562445027275L1097.0240521374353 356.0816979157369L1112.1379856733677 356.0816979157369L1113.9516576976796 367.5217829921657Q1117.2999752810247 361.15067870163426 1121.7876509309244 357.9651265563685Q1126.2985787862642 354.7795744111028 1130.9490198742435 354.7795744111028L1130.9490198742435 354.7795744111028Q1148.3649217487255 354.7795744111028 1148.3649217487255 376.68315193548466L1148.3649217487255 376.68315193548466Q1148.3649217487255 379.45016438283227 1147.5510945583292 384.00759664905183Q1146.7372673679326 388.54177670983154 1145.574657095938 391.95985090949625L1145.574657095938 391.95985090949625L1131.2047941340822 391.95985090949625L1131.2047941340822 383.2170216640954Q1131.2047941340822 376.4273776756458 1129.1586000553714 374.0324005153365Q1127.1124059766605 371.6141711495874 1124.0896192694743 371.6141711495874L1124.0896192694743 371.6141711495874Q1120.2297531664515 371.6141711495874 1117.695262773503 377.65974456396026L1117.695262773503 377.65974456396026L1117.695262773503 468.64562445027275L1097.0240521374353 468.64562445027275ZM1160.7815994536297 442.3241278923106L1160.7815994536297 356.0816979157369L1181.4760622951371 356.0816979157369L1181.4760622951371 438.88280148720605Q1181.4760622951371 446.3235072279727 1183.754778428247 449.2300329079597Q1186.0567467667966 452.1365585879467 1190.4514135949369 452.1365585879467L1190.4514135949369 452.1365585879467Q1197.0085355289875 452.1365585879467 1201.821742055046 445.5096800375764L1201.821742055046 445.5096800375764L1201.821742055046 356.0816979157369L1222.5162048965533 356.0816979157369L1222.5162048965533 468.64562445027275L1206.727957402864 468.64562445027275L1204.6817633241533 456.62423423784657L1204.6120067078334 456.62423423784657Q1199.775547976335 464.3207142384521 1193.6834701510822 467.1342310966795Q1187.5913923258297 469.9477479549069 1181.3830534733775 469.9477479549069L1181.3830534733775 469.9477479549069Q1171.5706227777414 469.9477479549069 1166.1761111156857 463.04184293925783Q1160.7815994536297 456.13593792360876 1160.7815994536297 442.3241278923106L1160.7815994536297 442.3241278923106ZM1240.8156905777514 422.5365010629593L1240.8156905777514 422.5365010629593L1240.8156905777514 401.28398529089446Q1240.8156905777514 388.3790112717523 1242.9781456836618 379.8687040807504Q1245.140600789572 371.3583968897485 1248.6749360164363 366.28941610385124Q1252.1860190378604 361.2204353179539 1256.4411726333615 358.77895374676484Q1260.6730740234225 356.3374721755758 1264.8584710026037 355.54689719061935Q1269.020615776345 354.7795744111028 1272.4619421814496 354.7795744111028L1272.4619421814496 354.7795744111028Q1283.9020272578782 354.7795744111028 1291.0172021224864 360.8251478254757Q1298.1091247816548 366.8707212398486 1298.1091247816548 379.5431732045918L1298.1091247816548 379.5431732045918Q1298.1091247816548 383.37978710217465 1297.7603417000562 386.23980837128187Q1297.388306413018 389.09982964038903 1296.7372446607008 391.72732885509726L1296.7372446607008 391.72732885509726L1281.042005988771 391.72732885509726L1281.042005988771 388.216245833673Q1281.042005988771 379.70593864267113 1278.7167854447816 374.91598432205257Q1276.368312695352 370.1492822068739 1271.7876282236925 370.1492822068739L1271.7876282236925 370.1492822068739Q1266.8116562595549 370.1492822068739 1264.1841570448466 375.6600548961292Q1261.5799100355782 381.1708275853846 1261.5799100355782 395.7267081907593L1261.5799100355782 395.7267081907593L1261.5799100355782 427.69849067061614Q1261.5799100355782 442.3938845086303 1263.9051305795679 448.4627101284431Q1266.2303511235575 454.50828354281606 1272.2991767433705 454.50828354281606L1272.2991767433705 454.50828354281606Q1275.3917200668764 454.50828354281606 1278.205236925104 451.18321816491095Q1281.042005988771 447.88140499244577 1281.042005988771 438.97581030896566L1281.042005988771 438.97581030896566L1281.042005988771 434.06959496114763L1297.7835939054962 434.06959496114763L1297.7835939054962 439.2083323633646Q1297.7835939054962 455.2291019114528 1290.924193300727 462.55354662502003Q1284.0647926959577 469.87799133858726 1269.9972084048204 469.87799133858726L1269.9972084048204 469.87799133858726Q1255.7668586756045 469.87799133858726 1248.3029007293978 458.763437138317Q1240.8156905777514 447.6256307326069 1240.8156905777514 422.5365010629593ZM1314.1531465351827 468.64562445027275L1314.1531465351827 319.9477706621388L1334.8243571712503 319.9477706621388L1334.8243571712503 405.5391388863954L1335.4754189235673 405.5391388863954L1358.0300582002665 356.0816979157369L1377.9106938513773 356.0816979157369L1353.7981568102052 406.6087403366306L1380.2824188062466 468.64562445027275L1359.3554339103403 468.64562445027275L1335.4754189235673 412.8170791890828L1334.8243571712503 412.8170791890828L1334.8243571712503 468.64562445027275L1314.1531465351827 468.64562445027275ZM1386.4907576586988 445.09114033965824L1386.4907576586988 445.09114033965824Q1386.4907576586988 441.4172918801547 1387.1883238218957 437.99921768049Q1387.8858899850925 434.55789127538543 1388.5369517374097 432.51169719667456L1388.5369517374097 432.51169719667456L1403.0928323427843 432.51169719667456Q1403.0928323427843 444.76560946349974 1406.1388712554108 449.64857260587786Q1409.208162373477 454.50828354281606 1414.9282049116914 454.50828354281606L1414.9282049116914 454.50828354281606Q1419.0205930691131 454.50828354281606 1421.3225614076628 452.0202975607472Q1423.6012775407726 449.5090593732385 1423.6012775407726 446.09098517357376L1423.6012775407726 446.09098517357376Q1423.6012775407726 442.48689333038993 1421.6713444892612 439.1385757470449Q1419.7646636431898 435.7902581636999 1416.4163460598447 431.7676266225979L1416.4163460598447 431.7676266225979L1401.9302220707896 413.9564372556377Q1396.0474140944962 406.51573151487105 1391.4434774173967 398.37745961090747Q1386.8162885348574 390.26243991238385 1386.8162885348574 380.4500092167478L1386.8162885348574 380.4500092167478Q1386.8162885348574 371.6839277659071 1390.6529024324404 366.01038963857246Q1394.489516330023 360.33685151123785 1400.7908640042347 357.5465868584504Q1407.0922116784466 354.7795744111028 1414.4399085974537 354.7795744111028L1414.4399085974537 354.7795744111028Q1426.6240642479593 354.7795744111028 1433.9020045506466 360.61587797651663Q1441.1799448533338 366.4521815419305 1441.1799448533338 378.14804087819806L1441.1799448533338 378.14804087819806Q1441.1799448533338 381.9846547757809 1440.482378690137 385.70500764616423Q1439.7848125269402 389.4253605165476 1439.133750774623 392.0528597312558L1439.133750774623 392.0528597312558L1424.8336444290871 392.0528597312558Q1424.6708789910078 380.9383055309856 1422.206145214379 375.54379386892975Q1419.7646636431898 370.1492822068739 1414.114377721295 370.1492822068739L1414.114377721295 370.1492822068739Q1409.3709278115564 370.1492822068739 1407.5805079926845 373.0790600923008Q1405.7900881738124 376.03209018316755 1405.7900881738124 379.6129298209115L1405.7900881738124 379.6129298209115Q1405.7900881738124 383.54255254025395 1407.7432734307636 386.70485248007975Q1409.696458687715 389.8439002144657 1412.8122542166611 393.7735229338081L1412.8122542166611 393.7735229338081L1429.1585546409078 413.5378975577196Q1431.5302795957773 416.49092764858636 1434.6460751247232 421.025107709366Q1437.7386184482293 425.5592877701457 1440.063838992219 431.2560781029202Q1442.4123117416484 436.9296162302548 1442.4123117416484 443.5564947806251L1442.4123117416484 443.5564947806251Q1442.4123117416484 455.3918673495321 1434.9716060008818 462.6465554467796Q1427.5309002601148 469.87799133858726 1413.7190902288166 469.87799133858726L1413.7190902288166 469.87799133858726Q1406.1853756662906 469.87799133858726 1399.9770368138384 467.5527707945976Q1393.7686979613864 465.2042980451682 1390.1181017073227 459.7865341776724Q1386.4907576586988 454.34551810473675 1386.4907576586988 445.09114033965824Z " fill="#fad744" transform="matrix(0.6066226727001136,0,0,0.6066226727001137,0,60.41571663102626)"/></g></svg>